<svg width="301" height="201" viewBox="0 0 301 201" fill="none" xmlns="http://www.w3.org/2000/svg">
<path fill-rule="evenodd" clip-rule="evenodd" d="M12.7227 0.740234C6.09524 0.740234 0.722656 6.11282 0.722656 12.7402V188.74C0.722656 195.368 6.09525 200.74 12.7227 200.74H288.723C295.35 200.74 300.723 195.368 300.723 188.74V12.7402C300.723 6.11282 295.35 0.740234 288.723 0.740234H12.7227ZM146.565 52.7026C143.694 52.7026 141.367 55.1198 141.367 58.1014C141.367 61.0831 143.694 63.5002 146.565 63.5002H272.918C275.789 63.5002 278.116 61.0831 278.116 58.1014C278.116 55.1198 275.789 52.7026 272.918 52.7026H146.565ZM141.367 88.8311C141.367 85.8494 143.694 83.4323 146.565 83.4323H272.918C275.789 83.4323 278.116 85.8494 278.116 88.8311C278.116 91.8128 275.789 94.2299 272.918 94.2299H146.565C143.694 94.2299 141.367 91.8128 141.367 88.8311ZM146.565 114.166C143.694 114.166 141.367 116.583 141.367 119.565C141.367 122.546 143.694 124.963 146.565 124.963H209.742C212.612 124.963 214.939 122.546 214.939 119.565C214.939 116.583 212.612 114.166 209.742 114.166H146.565ZM238.16 150.704C238.16 147.722 240.487 145.305 243.358 145.305H272.916C275.787 145.305 278.114 147.722 278.114 150.704C278.114 153.685 275.787 156.102 272.916 156.102L243.358 156.102C240.487 156.102 238.16 153.685 238.16 150.704ZM30.2266 36.3837C26.9129 36.3837 24.2266 39.07 24.2266 42.3837V159.096C24.2266 162.41 26.9129 165.096 30.2266 165.096H113.627C116.941 165.096 119.627 162.41 119.627 159.096V42.3837C119.627 39.07 116.941 36.3837 113.627 36.3837H30.2266ZM71.9289 108.301C82.5448 108.301 91.1507 99.362 91.1507 88.3347C91.1507 77.3074 82.5448 68.368 71.9289 68.368C61.3129 68.368 52.707 77.3074 52.707 88.3347C52.707 99.362 61.3129 108.301 71.9289 108.301ZM112.886 165.095C112.886 153.811 108.57 142.989 100.889 135.01C93.2072 127.03 82.7888 122.548 71.9254 122.548C61.062 122.548 50.6435 127.03 42.9619 135.01C35.2803 142.989 30.9648 153.811 30.9648 165.095L71.9254 165.095H112.886Z" fill="white"/>
</svg>
