<svg width="301" height="201" viewBox="0 0 301 201" fill="none" xmlns="http://www.w3.org/2000/svg">
<path fill-rule="evenodd" clip-rule="evenodd" d="M12.7227 0.871094C6.09524 0.871094 0.722656 6.24368 0.722656 12.8711V188.871C0.722656 195.499 6.09525 200.871 12.7227 200.871H288.723C295.35 200.871 300.723 195.499 300.723 188.871V12.8711C300.723 6.24368 295.35 0.871094 288.723 0.871094H12.7227ZM29.0547 58.2328C29.0547 55.2511 31.3816 52.834 34.2521 52.834H146.565H160.606H272.918C275.789 52.834 278.116 55.2511 278.116 58.2328C278.116 61.2144 275.789 63.6315 272.918 63.6315H160.606H146.565H34.2521C31.3816 63.6315 29.0547 61.2144 29.0547 58.2328ZM146.565 94.361H34.2521C31.3816 94.361 29.0547 91.9439 29.0547 88.9623C29.0547 85.9806 31.3816 83.5635 34.2521 83.5635H146.565H160.606H272.918C275.789 83.5635 278.116 85.9806 278.116 88.9623C278.116 91.9439 275.789 94.361 272.918 94.361H160.606H146.565ZM141.367 119.696C141.367 116.714 143.694 114.297 146.565 114.297H209.742C212.612 114.297 214.939 116.714 214.939 119.696C214.939 122.677 212.612 125.094 209.742 125.094H146.565C143.694 125.094 141.367 122.677 141.367 119.696ZM243.358 145.437C240.487 145.437 238.16 147.854 238.16 150.835C238.16 153.817 240.487 156.234 243.358 156.234H272.916C275.787 156.234 278.114 153.817 278.114 150.835C278.114 147.854 275.787 145.437 272.916 145.437H243.358ZM29.0547 119.696C29.0547 116.714 31.3816 114.297 34.2521 114.297H97.429C100.299 114.297 102.626 116.714 102.626 119.696C102.626 122.677 100.299 125.094 97.429 125.094H34.2521C31.3816 125.094 29.0547 122.677 29.0547 119.696Z" fill="white"/>
</svg>
