<svg width="301" height="201" viewBox="0 0 301 201" fill="none" xmlns="http://www.w3.org/2000/svg">
<path fill-rule="evenodd" clip-rule="evenodd" d="M12.7227 0.871094C6.09524 0.871094 0.722656 6.24368 0.722656 12.8711V188.871C0.722656 195.499 6.09525 200.871 12.7227 200.871H288.723C295.35 200.871 300.723 195.499 300.723 188.871V12.8711C300.723 6.24368 295.35 0.871094 288.723 0.871094H12.7227ZM29.0547 58.2328C29.0547 55.2511 31.3816 52.834 34.2521 52.834H160.606C163.476 52.834 165.803 55.2511 165.803 58.2328C165.803 61.2144 163.476 63.6315 160.606 63.6315H34.2521C31.3816 63.6315 29.0547 61.2144 29.0547 58.2328ZM125.959 150.835C125.959 147.854 128.286 145.437 131.156 145.437H160.715C163.585 145.437 165.912 147.854 165.912 150.835C165.912 153.817 163.585 156.234 160.715 156.234H131.156C128.286 156.234 125.959 153.817 125.959 150.835ZM34.2521 83.5635C31.3816 83.5635 29.0547 85.9806 29.0547 88.9623C29.0547 91.9439 31.3816 94.361 34.2521 94.361H160.606C163.476 94.361 165.803 91.9439 165.803 88.9623C165.803 85.9806 163.476 83.5635 160.606 83.5635H34.2521ZM29.0547 119.696C29.0547 116.714 31.3816 114.297 34.2521 114.297H97.429C100.299 114.297 102.626 116.714 102.626 119.696C102.626 122.677 100.299 125.094 97.429 125.094H34.2521C31.3816 125.094 29.0547 122.677 29.0547 119.696Z" fill="white"/>
</svg>
